<?xml version="1.0" standalone="no"?>
<!DOCTYPE svg PUBLIC "-//W3C//DTD SVG 20010904//EN"
 "http://www.w3.org/TR/2001/REC-SVG-20010904/DTD/svg10.dtd">
<svg version="1.0" xmlns="http://www.w3.org/2000/svg"
 width="350.000000pt" height="80.000000pt" viewBox="0 0 350.000000 80.000000"
 preserveAspectRatio="xMidYMid meet">

<g transform="translate(0.000000,80.000000) scale(0.100000,-0.100000)"
fill="#333" stroke="none">
<path d="M319 751 c-151 -48 -259 -194 -259 -351 0 -112 66 -239 156 -301 96
-66 213 -84 322 -51 119 38 205 122 242 241 25 80 25 142 0 222 -61 195 -267
302 -461 240z m254 -164 c40 -30 67 -74 67 -107 0 -18 -6 -20 -55 -20 -49 0
-57 3 -65 24 -10 28 -47 56 -73 56 -10 0 -31 -7 -46 -15 -65 -33 -78 -190 -20
-251 43 -46 120 -25 142 39 5 13 18 17 63 17 l57 0 -7 -32 c-33 -168 -304
-186 -388 -26 -30 59 -31 176 -1 233 45 86 103 116 214 113 65 -3 81 -7 112
-31z"/>
<path d="M940 554 c-75 -32 -113 -97 -114 -189 0 -109 60 -180 162 -192 124
-14 212 67 212 197 0 59 -24 123 -56 152 -52 46 -140 60 -204 32z m115 -99
c51 -50 24 -195 -36 -195 -36 0 -58 20 -69 61 -16 57 -4 114 27 139 33 26 49
25 78 -5z"/>
<path d="M1414 551 c-23 -10 -44 -25 -47 -32 -3 -8 -6 -2 -6 14 -1 26 -3 27
-56 27 l-55 0 0 -190 0 -190 55 0 55 0 0 116 c0 110 8 149 34 166 18 12 63 9
74 -5 7 -8 13 -68 14 -143 l3 -129 58 -3 57 -3 0 141 c0 153 -10 197 -52 223
-40 26 -89 29 -134 8z"/>
<path d="M1744 560 c-17 -6 -43 -21 -57 -36 -67 -67 -31 -159 80 -203 17 -7
34 -19 37 -27 13 -34 -71 -39 -122 -7 -28 17 -35 5 -30 -53 3 -38 4 -39 58
-52 116 -29 210 21 210 112 0 48 -26 79 -97 115 -23 11 -45 26 -49 32 -9 15
25 41 45 35 9 -3 31 -7 49 -11 l32 -7 0 46 c0 24 -4 47 -9 50 -17 11 -117 15
-147 6z"/>
<path d="M2556 560 c-15 -5 -37 -17 -47 -26 -18 -16 -19 -16 -19 4 0 20 -5 22
-55 22 l-55 0 0 -190 0 -190 54 0 54 0 4 131 c3 116 5 132 22 145 28 20 63 17
76 -5 5 -11 10 -76 10 -145 l0 -126 60 0 60 0 0 128 c0 114 2 131 19 146 11
10 30 16 42 14 38 -5 49 -42 49 -170 l0 -118 55 0 55 0 0 143 c0 115 -3 149
-18 177 -36 73 -136 88 -194 29 -27 -27 -28 -27 -39 -7 -11 20 -67 49 -91 47
-7 0 -26 -5 -42 -9z"/>
<path d="M3050 558 c-33 -12 -35 -15 -38 -66 l-3 -53 30 15 c36 19 122 21 139
4 7 -7 12 -20 12 -29 0 -13 -14 -18 -62 -23 -76 -9 -113 -27 -133 -66 -25 -48
-19 -86 19 -127 30 -33 38 -37 84 -37 36 0 57 6 72 19 18 16 20 16 20 2 0 -14
11 -17 61 -17 l61 0 -3 148 c-4 159 -11 183 -64 218 -33 22 -148 28 -195 12z
m140 -246 c0 -32 -24 -54 -55 -50 -59 6 -39 68 21 68 26 0 34 -4 34 -18z"/>
<path d="M1960 413 c0 -160 6 -182 53 -217 39 -29 116 -28 157 3 30 21 30 21
30 1 0 -18 6 -20 55 -20 l55 0 0 190 0 190 -55 0 -55 0 0 -117 c0 -146 -9
-168 -65 -168 -56 0 -65 22 -65 168 l0 117 -55 0 -55 0 0 -147z"/>
</g>
</svg>
